<svg xmlns="http://www.w3.org/2000/svg" viewBox="0 0 287.46 56"><defs><style>.cls-1{fill:#fff;}.cls-2{fill:#fda239;}</style></defs><g id="Layer_2" data-name="Layer 2"><g id="Layer_1-2" data-name="Layer 1"><path class="cls-1" d="M106.57,39.11a1.61,1.61,0,0,1,1.24.53l3.51,3.74a16.67,16.67,0,0,1-6.44,5,22.45,22.45,0,0,1-9.16,1.71,21.87,21.87,0,0,1-8.65-1.64,18.72,18.72,0,0,1-6.52-4.56A20.22,20.22,0,0,1,76.42,37,25.72,25.72,0,0,1,75,28.22a25.93,25.93,0,0,1,.69-6.06,21.56,21.56,0,0,1,2-5.3,20.42,20.42,0,0,1,3.2-4.36,19,19,0,0,1,4.24-3.32,20.48,20.48,0,0,1,5.14-2.1,24.78,24.78,0,0,1,10.42-.31,22.32,22.32,0,0,1,3.94,1.15A18.64,18.64,0,0,1,108,9.71,19.2,19.2,0,0,1,110.79,12l-3,4.08a2.71,2.71,0,0,1-.68.67A1.86,1.86,0,0,1,106,17a2.53,2.53,0,0,1-1.43-.5c-.48-.34-1.07-.71-1.77-1.12a12.25,12.25,0,0,0-2.62-1.12,13.28,13.28,0,0,0-4-.51,12.26,12.26,0,0,0-4.93,1,10.83,10.83,0,0,0-3.85,2.81,13,13,0,0,0-2.49,4.53A19.49,19.49,0,0,0,84,28.22a18.3,18.3,0,0,0,1,6.15,13.56,13.56,0,0,0,2.63,4.56,11.08,11.08,0,0,0,3.89,2.82,12.12,12.12,0,0,0,4.77,1A22.8,22.8,0,0,0,99,42.56a12,12,0,0,0,2.27-.5,10.42,10.42,0,0,0,2-.92,11.46,11.46,0,0,0,1.88-1.42,3.76,3.76,0,0,1,.68-.44A1.63,1.63,0,0,1,106.57,39.11Z"/><path class="cls-1" d="M114.51,23.44a18.06,18.06,0,0,1,5.93-3.61,20.06,20.06,0,0,1,7-1.2,12.59,12.59,0,0,1,4.85.89A10.33,10.33,0,0,1,135.94,22a11,11,0,0,1,2.29,3.76,13.9,13.9,0,0,1,.79,4.78V49.64h-3.71a3.74,3.74,0,0,1-1.76-.33,2.42,2.42,0,0,1-1-1.36L131.91,46c-.76.67-1.51,1.26-2.22,1.77a12.82,12.82,0,0,1-2.23,1.28,11,11,0,0,1-2.46.78,14.71,14.71,0,0,1-2.94.27,12,12,0,0,1-3.66-.53A7.94,7.94,0,0,1,115.56,48a6.94,6.94,0,0,1-1.85-2.61,9.36,9.36,0,0,1-.65-3.6,7.36,7.36,0,0,1,.86-3.36,8.36,8.36,0,0,1,2.93-3.06,18.83,18.83,0,0,1,5.55-2.27,38.86,38.86,0,0,1,8.69-1V30.52a6.16,6.16,0,0,0-1.21-4.2A4.44,4.44,0,0,0,126.4,25a8.67,8.67,0,0,0-2.81.4,14,14,0,0,0-2,.86l-1.58.85a3.48,3.48,0,0,1-1.71.4,2.31,2.31,0,0,1-1.43-.43,4,4,0,0,1-1-1Zm16.58,13.48a37.53,37.53,0,0,0-5,.52,11.49,11.49,0,0,0-3.14,1,4,4,0,0,0-1.65,1.34,3.37,3.37,0,0,0,.5,4.14,4.48,4.48,0,0,0,2.76.74,8,8,0,0,0,3.52-.72,10.84,10.84,0,0,0,3-2.26Z"/><path class="cls-1" d="M145.39,49.64V19.22h5a2,2,0,0,1,2,1.42l.48,2a19.5,19.5,0,0,1,1.63-1.54,10.15,10.15,0,0,1,1.82-1.22,9.05,9.05,0,0,1,2.11-.81,9.59,9.59,0,0,1,2.46-.3,7.11,7.11,0,0,1,4.63,1.49,9.14,9.14,0,0,1,2.77,4,9.52,9.52,0,0,1,1.82-2.5A9.64,9.64,0,0,1,172.52,20a11.49,11.49,0,0,1,2.71-1,13.43,13.43,0,0,1,2.88-.31,12.52,12.52,0,0,1,4.54.77A8.51,8.51,0,0,1,186,21.77,10,10,0,0,1,188,25.42a15.68,15.68,0,0,1,.71,4.89V49.64h-8.14V30.31Q180.59,25,176,25a5.34,5.34,0,0,0-1.9.34,4.37,4.37,0,0,0-1.53,1,4.58,4.58,0,0,0-1,1.68,6.57,6.57,0,0,0-.37,2.3V49.64H163V30.31c0-1.92-.37-3.29-1.13-4.11A4.34,4.34,0,0,0,158.55,25a5.68,5.68,0,0,0-2.67.67,8.71,8.71,0,0,0-2.34,1.84V49.64Z"/><path class="cls-1" d="M222.09,5.65v44h-5a1.91,1.91,0,0,1-2-1.42l-.68-2.65a18.34,18.34,0,0,1-1.93,1.82,12.44,12.44,0,0,1-2.2,1.44,11,11,0,0,1-2.53.92,12.51,12.51,0,0,1-2.95.33,9.76,9.76,0,0,1-4.49-1,10.12,10.12,0,0,1-3.52-3,14.65,14.65,0,0,1-2.32-4.88,24.15,24.15,0,0,1-.82-6.61,20.7,20.7,0,0,1,.93-6.31,14.93,14.93,0,0,1,2.64-5,12.26,12.26,0,0,1,4.13-3.34,11.89,11.89,0,0,1,5.36-1.21,10.5,10.5,0,0,1,4.18.74,10.91,10.91,0,0,1,3.08,2V5.65ZM214,27.13a6.46,6.46,0,0,0-2.49-1.86,7.8,7.8,0,0,0-2.85-.53,6.33,6.33,0,0,0-2.68.56,5.33,5.33,0,0,0-2.08,1.75,8.82,8.82,0,0,0-1.34,3.06,17.84,17.84,0,0,0-.48,4.42,20.39,20.39,0,0,0,.39,4.31,8.33,8.33,0,0,0,1.1,2.86,4.33,4.33,0,0,0,1.76,1.58,5.38,5.38,0,0,0,2.3.49,7,7,0,0,0,3.61-.86A10.44,10.44,0,0,0,214,40.49Z"/><path class="cls-1" d="M235.34,35.68c.25,2.85,1.07,4.94,2.43,6.26a7.43,7.43,0,0,0,5.36,2,9.56,9.56,0,0,0,2.9-.39,14.84,14.84,0,0,0,2.16-.89l1.68-.88a3.12,3.12,0,0,1,1.49-.4,1.71,1.71,0,0,1,1.47.71L255.19,45a12.86,12.86,0,0,1-2.86,2.49,15.07,15.07,0,0,1-3.24,1.56,17.28,17.28,0,0,1-3.4.8,25.28,25.28,0,0,1-3.3.22,16.53,16.53,0,0,1-5.94-1,13.41,13.41,0,0,1-4.81-3.1,14.33,14.33,0,0,1-3.23-5.08,19.36,19.36,0,0,1-1.18-7.05,16.88,16.88,0,0,1,1-5.85,13.77,13.77,0,0,1,7.6-8,15.31,15.31,0,0,1,6.2-1.2,15.12,15.12,0,0,1,5.38.93,12,12,0,0,1,4.25,2.7,12.16,12.16,0,0,1,2.77,4.35,16.34,16.34,0,0,1,1,5.89,10.2,10.2,0,0,1-.09,1.5,2.6,2.6,0,0,1-.3.94,1,1,0,0,1-.56.49,2.58,2.58,0,0,1-.91.13Zm12.8-4.83a8.33,8.33,0,0,0-.34-2.42,5.54,5.54,0,0,0-1.07-2,5.31,5.31,0,0,0-1.86-1.4,6.45,6.45,0,0,0-2.69-.52,6.19,6.19,0,0,0-4.57,1.65,8.41,8.41,0,0,0-2.15,4.73Z"/><path class="cls-1" d="M268,22.76a19.27,19.27,0,0,1,1.91-1.62A13.09,13.09,0,0,1,272,19.87a11.41,11.41,0,0,1,2.39-.82,12.3,12.3,0,0,1,2.79-.3,10.65,10.65,0,0,1,4.39.86A9,9,0,0,1,284.82,22a10.27,10.27,0,0,1,2,3.66,15.67,15.67,0,0,1,.66,4.66V49.64h-8.11V30.31a5.89,5.89,0,0,0-1.18-3.93A4.26,4.26,0,0,0,274.69,25a7.2,7.2,0,0,0-3.21.74,11,11,0,0,0-2.87,2.07V49.64h-8.14V19.22h5a2,2,0,0,1,2,1.42Z"/><rect class="cls-2" width="56" height="56" rx="10"/><path d="M43.63,19.13a2.83,2.83,0,0,0-2.77-2.84h-2.7a.37.37,0,0,1-.37-.36h0V14.84a4.37,4.37,0,0,0-4.37-4.38H29a4.38,4.38,0,0,0-4.37,4.38v1.09a.36.36,0,0,1-.36.36H21.39a.37.37,0,0,1-.37-.36V14.84a1.46,1.46,0,0,1,1.46-1.46,1.46,1.46,0,1,0,0-2.92,4.38,4.38,0,0,0-4.37,4.38v1.09a.37.37,0,0,1-.37.36H15.19a2.92,2.92,0,0,0-3,2.72L10.09,42.62a2.93,2.93,0,0,0,3,2.84H42.32a2.83,2.83,0,0,0,2.77-2.89v0Zm-16-4.29A1.45,1.45,0,0,1,29,13.38h4.38a1.46,1.46,0,0,1,1.46,1.46v1.09a.37.37,0,0,1-.37.36H28a.36.36,0,0,1-.36-.36ZM13.82,42.51a.73.73,0,0,1-.73-.73v-.07l2-21.84a.74.74,0,0,1,.73-.66h3.83a.72.72,0,0,1,.72.69l1.22,21.87a.73.73,0,0,1-.69.76h0Z"/></g></g></svg>